<?xml version="1.0" encoding="UTF-8" standalone="no"?><!DOCTYPE svg PUBLIC "-//W3C//DTD SVG 1.1//EN" "http://www.w3.org/Graphics/SVG/1.1/DTD/svg11.dtd"><svg width="100%" height="100%" viewBox="0 0 18246 3401" version="1.1" xmlns="http://www.w3.org/2000/svg" xmlns:xlink="http://www.w3.org/1999/xlink" xml:space="preserve" xmlns:serif="http://www.serif.com/" style="fill-rule:evenodd;clip-rule:evenodd;stroke-linejoin:round;stroke-miterlimit:2;"><rect id="Mesa-de-trabajo1" serif:id="Mesa de trabajo1" x="0" y="0" width="18245.144" height="3400.208" style="fill:none;"/><g><circle cx="2285.251" cy="1689.362" r="1513.443" style="fill:#255af6;"/><path d="M2400.714,1090.37l-848.678,0l-127.302,209.812l843.755,0l132.224,-209.812Z" style="fill:#fff;"/><path d="M1293.209,1508.9l830.997,0l-134.256,211.344l-392.278,0l-124.473,196.139l563.899,0l-148.99,222.542l-795.871,0l250.831,-416.795l-184.823,0l134.963,-213.23Z" style="fill:#fff;"/><path d="M3357.264,1324.195l-629.907,0l-119.645,198.855l612.195,0l-140.979,215.33l-401.692,0l-118.77,196.018l559.086,0l-139.047,218.227l-809.178,0l265.542,-415.211l-201.812,0l401.692,-632.472l861.562,0l-139.047,219.253Z" style="fill:#fff;"/></g><g id="electronic-eats-no-logo.png" serif:id="electronic eats no logo.png"><g><path d="M5334.573,2237.074c0.004,210.594 1.509,212.697 -7.563,221.984c-7.39,7.564 -49.728,6.977 -124.905,6.907c-84.314,-0.078 -1050.454,-0.977 -1053.929,-1.04c-43.516,-0.795 -35.698,-18.031 -35.731,-61.443c-0.091,-120.867 -1.129,-1505.152 0.188,-1510.844c7.16,-30.931 17.566,-22.897 49.485,-23.048c418.67,-1.978 1046.106,-0.683 1137.072,-0.495c37.74,0.078 34.346,13.124 35.219,50.677c0.457,19.646 -0.76,170.14 -0.044,194.109c0.913,30.547 -4.508,34.621 -35.239,35.779c-12.659,0.477 -853.768,-0.827 -860.896,0.797c-21.182,4.826 -18.304,10.639 -18.749,32.526c-1.592,78.202 -1.054,293.608 -0.991,319.139c0.133,53.237 20.166,45.204 62.561,45.146c64.316,-0.088 788.647,-1.075 803.953,0.14c32.484,2.579 26.941,22.438 26.779,135.027c-0.158,109.776 3.199,132.206 -12.533,138.832c-14.373,6.054 -107.163,2.137 -374.46,3.3c-28.823,0.125 -480.66,-0.633 -484.824,-0.027c-24.404,3.552 -20.595,14.09 -20.568,162.954c0.032,181.761 -6.73,193.126 19.101,198.581c5.318,1.123 871.418,-0.004 873.937,0.674c15.927,4.29 17.618,4.893 20.631,21.301c0.42,2.287 0.112,2.15 1.506,29.023Z" style="fill:#0d59fe;"/><path d="M15069.128,2403.471c-0.003,5.476 -0.033,67.172 -0.415,68.444c-6.69,22.304 -12.086,19.856 -35.346,19.997c-20.191,0.122 -995.112,-0.246 -1081.643,-0.279c-34.818,-0.013 -46.22,2.501 -47.205,-32.41c-2.659,-94.27 -0.169,-1378.033 0.064,-1497.861c0.007,-3.415 0.077,-39.868 0.692,-42.683c4.664,-21.361 10.37,-18.849 32.28,-19.383c87.641,-2.138 87.567,2.786 1095.84,-2.392c31.194,-0.16 34.725,5.702 35.749,36.793c0.028,0.859 -0.026,221.3 -0.043,221.41c-2.692,17.873 -4.948,18.546 -22.448,22.998c-1.511,0.384 -800.088,-0.202 -804.363,0.335c-23.717,2.982 -24.762,16.44 -25.199,32.62c-0.713,26.429 0.355,208.507 -0.206,304.984c-0.002,0.349 -3.932,34.949 7.169,46.566c8.206,8.588 10.054,7.574 185.283,8.148c6.714,0.022 623.571,-0.167 624.125,-0.068c18.34,3.256 20.164,16.114 20.943,56.238c1.885,97.141 -2.723,96.909 0.066,194.122c1.092,38.047 -18.395,34.171 -76.584,35.289c-48.802,0.938 -48.776,-0.525 -610.143,-1.129c-129.851,-0.14 -130.347,-0.175 -140.447,4.764c-11.848,5.794 -10.352,10.003 -10.249,224.584c0.051,106.295 -4.126,126.985 25.278,129.574c2.038,0.179 653.488,0.742 791.061,0.038c31.216,-0.16 34.749,5.718 35.737,36.826c0.164,5.162 -0.051,5.096 0.003,152.475Z" style="fill:#0d59fe;"/><path d="M10657.206,1986.598c-2.088,28.035 -9.507,75.568 -17.648,98.686c-16.822,47.765 -55.543,213.358 -252.375,330.508c-238.078,141.699 -600.297,94.236 -770.32,-195.596c-107.443,-183.154 -144.008,-562.345 146.075,-788.93c212.517,-165.998 600.588,-154.716 790.32,113.397c83.522,118.027 91.538,217.156 100.073,248.159c10.184,36.995 6.267,112.637 3.875,193.776Z" style="fill:#0d59fe;"/><path d="M15191.521,2208.816c-0.985,-27.814 -2.757,-57.991 3.337,-97.589c2.14,-13.904 17.171,-66.219 35.116,-94.472c5.39,-8.486 39.098,-61.561 85.092,-92.465c164.854,-110.769 287.778,-91.939 591.815,-92.53c36.381,-0.071 40.79,-15.527 25.736,-79.537c-47.788,-203.186 -249.927,-176.251 -320.328,-115.504c-44.191,38.131 -48.905,68.632 -56.252,85.357c-9.644,21.951 -21.284,19.62 -148.342,19.292c-123.486,-0.319 -139.915,4.311 -147.096,-17.817c-3.727,-11.483 11.772,-62.101 13.38,-67.354c89.029,-290.759 364.835,-313.863 383.863,-315.317c105.634,-8.074 303.07,-15.349 450.009,140.919c132.758,141.186 121.199,256.203 120.929,630.494c-0.254,352.526 0.958,352.608 -1.315,360.998c-5.908,21.81 -18.504,17.945 -154.157,18.149c-106.091,0.16 -123.625,6.017 -125.607,-32.448c-1.081,-20.986 2.076,-20.759 1.681,-41.827c-0.467,-24.957 -14.695,-23.091 -31.86,-4.804c-2.586,2.755 -5.666,5.002 -8.395,7.615c-136.007,130.215 -487.27,146.892 -641.571,-29.061c-69.134,-78.834 -76.017,-181.983 -76.034,-182.099Z" style="fill:#0d59fe;"/><path d="M5859.729,1890.501c32.653,-626.701 686.424,-698.74 944.967,-410.734c63.629,70.88 111.085,169.733 125.356,231.433c7.415,32.059 9.48,31.383 12.28,41.951c3.972,14.993 -1.203,15.759 8.04,53.81c14.562,59.947 8.352,173.838 6.724,178.067c-8.411,21.847 -18.389,10.74 -520.908,12.888c-252.373,1.079 -260.826,-3.304 -266.536,16.174c-5.271,17.978 19.403,77.88 21.518,82.062c88.427,174.818 294.86,173.654 395.887,97.061c79.886,-60.565 58.743,-96.532 112.586,-97.082c17.786,-0.182 200.954,-2.054 222.341,-0.105c16.704,1.522 17.991,13.438 18.195,15.33c0.185,1.711 -12.533,52.583 -35.047,96.689c-71.142,139.366 -178.093,200.957 -248.513,233.892c-222.067,103.859 -446.742,30.767 -536.396,-29.098c-177.106,-118.26 -219.157,-255.5 -243.161,-340.795c-4.746,-16.864 -5.708,-38.943 -9.185,-56.851c-9.574,-49.311 -8.082,-49.42 -8.146,-124.692Z" style="fill:#0d59fe;"/><path d="M11672.102,1696.496c1.597,132.396 0.529,747.567 0.432,747.934c-6.312,23.87 -11.857,21.865 -36.556,22.823c-2.232,0.087 -198.757,0.577 -207.816,0.469c-44.712,-0.536 -34.047,-19.73 -33.163,-64.409c1.268,-64.129 4.726,-496.482 0.201,-595.728c-2.723,-59.728 -0.45,-96.587 -36.028,-153.187c-46.749,-74.371 -220.313,-74.88 -278.324,13.746c-49.712,75.947 -44.01,123.249 -49.731,181.284c-4.131,41.906 -11.503,116.699 -6.256,526.331c0.567,44.276 8.587,81.611 -9.655,88.682c-17.726,6.871 -250.954,2.868 -251.35,2.714c-21.959,-8.504 -18.753,-21.031 -18.513,-146.875c0.514,-268.888 -0.24,-951.536 0.693,-957.125c3.799,-22.76 29.165,-22.907 30.573,-23.028c0.36,-0.031 219.596,-0.382 221.099,0.028c23.697,6.473 21.129,12.355 21.291,37.107c0.134,20.54 -0.856,79.173 0.024,81.151c0.133,0.299 10.669,0.421 11.058,0.368c7.707,-1.055 1.274,-34.812 77.347,-84.24c96.711,-62.837 280.023,-78.101 408.383,10.024c1.078,0.74 89.981,42.138 136.76,199.899c8.22,27.721 2.365,28.729 9.875,56.751c7.319,27.307 5.951,27.372 9.658,55.282Z" style="fill:#0d59fe;"/><path d="M17063.947,1751.495c-0.08,-5.506 -0.801,-54.982 -0.24,-68.831c0.683,-16.831 4.638,-114.349 73.719,-197.231c149.715,-179.625 437.823,-169.666 600.505,-95.531c114.409,52.136 190.638,172.078 202.692,265.436c4.964,38.444 24.973,52.656 -7.876,59.613c-3.793,0.803 -204.285,0.768 -209.791,0.265c-39.036,-3.568 -29.347,-34.296 -59.538,-70.619c-99.564,-119.785 -315.015,-86.491 -324.25,24.504c-17.936,215.584 584.123,13.709 642.506,402.496c31.506,209.809 -74.336,305.957 -120.697,344.44c-10.61,8.807 -62.198,51.629 -153.186,79.007c-20.143,6.061 -126.376,38.027 -262.019,21.969c-210.64,-24.937 -298.932,-134.665 -316.65,-156.685c-55.999,-69.596 -79.393,-176.38 -78.725,-206.581c0.536,-24.249 -1.752,-30.007 21.881,-36.17c2.19,-0.571 215.599,-0.505 220.94,-0.004c56.625,5.305 9.217,60.886 109.707,135.599c64.536,47.981 165.75,35.001 195.826,26.044c110.605,-32.938 146.668,-130.903 72.975,-186.152c-56.672,-42.489 -196.954,-54.593 -226.268,-61.09c-105.2,-23.317 -302.024,-54.926 -358.788,-183.684c-25.127,-56.997 -22.409,-93.642 -22.724,-96.793Z" style="fill:#0d59fe;"/><path d="M12196.661,2000.794c-2.72,-25.643 -2.579,-25.495 -2.938,-27.694c-14.599,-89.516 -5.214,-89.761 4.81,-180.42c9.11,-82.4 60.321,-201.607 127.414,-279.519c152.615,-177.226 329.117,-185.262 377.979,-189.411c292.727,-24.854 529.496,152.206 585.828,413.558c9.636,44.707 -35.865,34.412 -59.069,34.354c-210.546,-0.531 -211.731,1.574 -221.879,-5.988c-8.437,-6.286 -6.218,-8.026 -19.859,-38.933c-39.331,-89.117 -157.444,-161.407 -271.299,-141.362c-284.221,50.04 -284.031,414.676 -162.217,550.949c126.335,141.331 371.963,113.711 440.672,-65.177c15.254,-39.716 25.806,-33.356 82.078,-33.302c199.375,0.191 200.95,-1.03 207.666,5.456c7.395,7.142 19.477,18.811 -21.628,126.668c-83.902,220.154 -307.919,316.419 -477.536,323.907c-366.721,16.19 -567.343,-263.113 -590.022,-493.085Z" style="fill:#0d59fe;"/><path d="M7052.19,2014.947c-0.898,-21.014 -2.041,-20.685 -3.179,-41.844c-4.174,-77.611 -3.253,-82.835 0.495,-151.437c0.79,-14.459 1.58,-45.319 9.478,-70.336c12.331,-39.056 34.912,-159.984 152.288,-278.316c146.1,-147.291 338.915,-164.222 445.439,-154.228c221.681,20.797 328.362,141.09 344.516,157.49c111.927,113.627 146.945,267.581 135.917,286.289c-6.638,11.26 -33.92,10.332 -36.988,10.228c-94.276,-3.205 -189.106,1.067 -222.448,-1.333c-28.808,-2.074 -32.32,-25.691 -36.195,-35.412c-58.66,-147.166 -237.693,-191.446 -364.134,-120.767c-167.819,93.808 -145.017,303.456 -144.73,316.936c0.285,13.398 10.276,166.021 130.842,247.647c12.205,8.263 79.471,53.804 179.078,43.305c189.548,-19.98 200.396,-169.579 221.625,-180.555c14.896,-7.701 51.927,-5.453 55.725,-5.449c207.991,0.254 210.961,-0.945 217.43,8.989c12.239,18.795 -21.615,166.045 -104.71,261.808c-238.903,275.321 -754.994,259.412 -937.658,-151.129c-21.595,-48.535 -17.603,-49.663 -34.102,-100.261c-6.666,-20.441 -5.529,-20.469 -8.687,-41.623Z" style="fill:#0d59fe;"/><path d="M8341.936,2139.987c-1.004,-472.947 2.338,-472.682 -0.157,-513.702c-1.909,-31.389 -23.856,-27.692 -47.484,-27.817c-112.338,-0.594 -140.813,3.837 -146.3,-15.068c-1.456,-5.016 -2.443,-225.699 -0.361,-231.553c5.907,-16.606 31.553,-13.009 132.803,-13.216c1.333,-0.003 52.452,5.658 59.026,-15.328c2.443,-7.8 2.102,-226.423 2.369,-237.077c1.554,-62.039 -1.803,-76.331 35.714,-76.619c17.77,-0.136 156.757,-1.204 222.13,1.027c42.767,1.459 33.297,19.002 33.211,61.713c-0.038,18.912 -0.403,199.611 1.492,236.397c0.108,2.089 0.971,18.858 8.319,24.791c10.768,8.694 62.942,5.355 164.62,5.884c45.839,0.238 35.258,19.849 35.246,65.695c-0.044,174.276 -0.237,182.626 -10.847,189.302c-14.131,8.892 -161.288,1.804 -176.929,4.67c-28.043,5.139 -21.874,50.067 -21.936,69.508c-0.247,77.969 2.696,426.22 2.83,430.086c3.929,112.992 86.211,106.687 171.662,106.959c37.749,0.12 36.357,19.062 35.168,73.06c-3.625,164.652 2.725,167.863 -8.963,178.582c-6.627,6.077 -37.327,8.792 -40.646,9.085c-143.995,12.733 -216.19,-5.917 -234.362,-10.611c-16.079,-4.154 -118.792,-30.687 -168.998,-120.544c-55.971,-100.174 -47.545,-186.665 -47.609,-195.223Z" style="fill:#0d59fe;"/><path d="M16788.263,2140.324c2.509,37.19 -0.083,92.905 130.909,95.132c50.368,0.856 72.644,-9.746 73.081,43.206c1.568,190.243 3.658,192.582 -7.369,204.704c-4.398,4.835 -4.665,7.405 -93.725,14.348c-216.852,16.906 -325.224,-67.914 -360.213,-149.728c-42.333,-98.986 -37.343,-150.259 -37.57,-263.436c-0.877,-438.362 5.965,-441.719 -7.07,-454.768c-11.738,-11.751 -79.274,-5.768 -149.469,-7.059c-45.068,-0.829 -34.274,-19.926 -34.367,-65.055c-0.214,-103.515 -6.612,-179.536 9.092,-190.758c16.951,-12.113 154.959,2.176 172.207,-10.079c12.566,-8.928 8.185,-12.907 10.202,-270.606c0.298,-38.051 -1.326,-50.124 36.909,-50.264c17.726,-0.065 193.72,-0.706 221.574,0.055c35.766,0.978 29.597,40.746 30.005,64.004c4.263,242.582 1.02,244.286 8.268,252.457c11.041,12.448 17.056,9.628 142.282,9.716c4.212,0.003 44.972,0.032 52.376,5.328c11.486,8.217 10.377,11.311 10.11,176.242c-0.009,5.636 -0.103,63.93 -5.862,70.201c-10.875,11.842 -12.727,8.643 -28.995,8.835c-58.825,0.692 -157.617,-3.006 -166.378,4.031c-12.528,10.063 -10.659,11.884 -10.987,27.991c-1.291,63.392 0.309,306.038 0.484,332.65c0.588,89.162 3.754,140.642 4.505,152.853Z" style="fill:#0d59fe;"/><path d="M5763.035,1613.088c2.253,64.302 0.625,64.046 0.952,804.264c0.001,2.154 0.011,25.925 -0.25,26.928c-5.86,22.473 -11.091,20.734 -34.508,21.183c-61.248,1.172 -204.3,0.906 -222.065,0.873c-22.44,-0.042 -23.296,4.843 -43.23,-4.943c-12.998,-6.381 -9.917,-11.242 -10.463,-279.776c-0.21,-103.149 -2.578,-1267.93 0.082,-1289.36c3.023,-24.358 24.211,-23.489 26.202,-23.582c47.076,-2.183 229.293,-0.675 249.231,-0.51c30.943,0.256 33.667,6.837 33.979,37.666c0.883,87.093 1.015,612.417 1.028,665.671c0.005,21.062 -0.478,20.777 -0.958,41.584Z" style="fill:#0d59fe;"/><path d="M9200.213,1431.771c1.532,3.462 0.309,7.746 1.841,11.208c4.332,9.792 6.437,9.736 7.414,9.71c8.346,-0.223 2.485,-9.974 10.874,-10.198c18.703,-26.054 16.966,-27.928 54.957,-56.209c100.694,-74.96 241.198,-62.016 249.547,-57.957c14.353,6.977 11.704,13.445 11.847,229.297c0.002,3.422 0.023,34.889 -7.911,42.041c-24.161,21.781 -170.112,-19.848 -254.963,93.024c-4.54,6.039 -22.647,30.126 -38.567,86.209c-6.909,24.34 0.34,27.484 -12.013,83.779c-8.561,39.011 -7.037,39.458 -6.997,499.195c0.003,34.8 -0.1,34.507 0.971,69.309c1.403,45.572 -17.688,37.473 -63.228,37.716c-15.484,0.083 -184.752,0.985 -193.557,-0.141c-24.649,-3.153 -21.109,-31.797 -21.169,-37.414c-3.321,-310.687 -0.881,-1065.656 -0.531,-1067.235c5.312,-23.992 10.436,-23.376 35.12,-23.755c7.318,-0.112 204.414,-0.63 207.297,0.16c23.598,6.466 21.003,12.345 21.24,36.749c0.042,4.364 0.15,15.447 -2.172,54.512Z" style="fill:#0d58fe;"/><path d="M11780.169,1557.63c-0.018,-15.496 -0.221,-192.328 -0.019,-193.697c2.946,-20.026 20.242,-23.003 22.821,-23.446c1.867,-0.321 50.57,-0.305 54.968,-0.304c176.782,0.058 184.191,-0.67 191.44,2.167c16.4,6.418 12.325,40.815 12.303,118.21c0.528,323.541 1.055,647.081 1.583,970.622c-0.009,4.701 4.169,32.189 -25.528,35.975c-1.199,0.153 -217.333,0.384 -221.339,0.229c-24.506,-0.948 -29.935,0.739 -35.88,-23.002c-0.66,-2.637 -0.348,-2.703 -0.348,-886.754Z" style="fill:#0c58fe;"/><path d="M10380.3,1876.461c2.65,102.793 -3.736,102.296 -12.574,137.179c-17.965,70.908 -93.206,227.325 -311.885,205.185c-173.844,-17.601 -247.166,-193.218 -239.052,-328.553c19.397,-323.519 316.955,-344.386 445.466,-248.008c62.76,47.068 88.04,93.306 113.343,178.38c6.503,21.864 3.513,22.056 4.703,55.818Z" style="fill:#fefefe;"/><path d="M15498.588,2182.197c0.008,-0.324 -2.404,-19.861 1.01,-43.193c0.298,-2.038 1.775,-12.131 9.365,-23.98c49.282,-76.94 186.363,-66.65 203.851,-66.754c194.621,-1.157 194.858,-2.417 210.704,3.337c31.611,11.477 -6.471,104.97 -35.493,139.66c-91.184,108.992 -260.78,127.505 -344.151,63.111c-46.514,-35.927 -42.402,-59.497 -45.287,-72.181Z" style="fill:#fefefe;"/><path d="M6436.201,1771.34c-253.19,-0 -255.71,1.136 -261.695,-7.091c-8.305,-11.417 -3.52,-12.419 0.442,-25.747c9.218,-31.011 12.68,-53.691 37.742,-85.055c105.346,-131.835 291.193,-105.765 373.956,-37.763c58.055,47.701 87.599,131.929 70.741,149.298c-7.483,7.71 -9.344,6.295 -221.186,6.358Z" style="fill:#fefefe;"/><path d="M11766.849,1003.145c2.887,-17.682 -0.574,-18.806 16.081,-58.014c8.009,-18.855 10.724,-21.098 16.22,-27.912c81.72,-101.332 213.377,-59.347 253.43,16.131c80.237,151.204 -79.963,274.511 -197.185,213.807c-85.722,-44.391 -87.703,-116.522 -88.545,-144.012Z" style="fill:#0c58fe;"/><path d="M9200.213,1431.771c6.71,3.574 13.419,7.147 20.129,10.721c-8.39,0.224 -2.528,9.975 -10.874,10.198c-0.977,0.026 -3.082,0.082 -7.414,-9.71c-1.532,-3.462 -0.309,-7.746 -1.841,-11.208Z" style="fill:#9dbcfc;"/></g></g></svg>