<?xml version="1.0" encoding="UTF-8" standalone="no"?><!DOCTYPE svg PUBLIC "-//W3C//DTD SVG 1.1//EN" "http://www.w3.org/Graphics/SVG/1.1/DTD/svg11.dtd"><svg width="100%" height="100%" viewBox="0 0 1879 1879" version="1.1" xmlns="http://www.w3.org/2000/svg" xmlns:xlink="http://www.w3.org/1999/xlink" xml:space="preserve" xmlns:serif="http://www.serif.com/" style="fill-rule:evenodd;clip-rule:evenodd;stroke-linejoin:round;stroke-miterlimit:2;"><g id="Fondo"><path d="M934.545,0l9.171,0c0.88,0.241 1.082,1.669 1.962,1.91c5.605,1.535 62.666,0.02 89.73,3.213c2.759,0.326 133.151,10.372 271.071,70.053c292.67,126.643 460.205,363.67 528.291,582.537c46.203,148.52 38.567,219.572 41.619,241.883c0.121,0.888 1.748,1.045 1.869,1.933l0,1.834c-4.449,8.552 -1.898,9.059 -1.894,25.679c0.008,43.277 -0.085,43.276 0.007,44.071c0.099,0.86 1.789,0.925 1.888,1.785l0,1.834c-0.119,0.886 -1.743,1.043 -1.862,1.929c-0.571,4.24 0.007,8.558 -0.127,12.834c-1.702,54.453 -4.376,54.057 -11.962,108.095c-21.928,156.212 -118.047,334.932 -172.125,399.974c-34.276,41.225 -29.571,45.361 -104.388,117.591c-67.24,64.914 -117.162,94.707 -124.799,100.865c-30.546,24.632 -196.543,121.872 -363.406,146.314c-109.158,15.989 -109.699,10.406 -119.139,12.039c-0.876,0.152 -1.009,1.734 -1.885,1.885l-1.834,0c-0.822,-0.17 -0.9,-1.666 -1.722,-1.836c-0.277,-0.057 -27.517,-0.075 -27.595,-0.055c-0.857,0.221 -1.008,1.669 -1.865,1.89l-12.84,0c-0.879,-0.101 -0.986,-1.789 -1.865,-1.89c-0.922,-0.106 -21.917,-0.015 -23.823,-0.007c-3.079,0.013 -2.687,0.928 -5.494,1.897l-1.834,0c-0.876,-0.152 -1.008,-1.735 -1.883,-1.887c-22.423,-3.885 -215.656,5.905 -449.81,-137.666c-257.513,-157.894 -413.125,-423.363 -442.571,-699.726c-4.018,-37.715 -4.661,-193.106 3.072,-223.619c0.964,-3.803 2.595,-18.578 4.407,-27.552c0.203,-2.468 0.405,-4.935 0.608,-7.403c4.522,-21.211 4.095,-21.122 8.767,-42.295c29.673,-134.495 58.946,-171.555 66.626,-197.948c1.002,-3.443 44.737,-86.265 55.41,-100.653c2.691,-3.628 25.828,-39.587 34.077,-50.061c5.974,-7.585 24.049,-31.749 26.124,-34.522c2.068,-0.537 12.058,-5.711 8.163,-10.468c3.136,-4.186 3.377,-3.754 6.433,-7.948c0.105,-0.026 0.019,0.012 6.685,-4.251c0.436,-0.439 5.448,-5.488 5.448,-5.488c0.25,-0.782 -1.99,-0.963 -1.74,-1.745c8.165,-8.168 15.382,-16.747 16.655,-18.26c1.599,-1.716 1.79,-1.399 2.356,-3.218c35.564,-38.844 121.823,-122.262 221.513,-176.883c43.563,-23.868 43.196,-24.09 88.199,-45.557c16.719,-7.975 86.868,-35.73 95.632,-36.353c8.488,-0.603 26.978,-8.414 29.241,-9.37c1.953,-0.825 28.661,-6.585 44.375,-11.763c6.593,-2.172 101.13,-17.39 109.939,-18.808c5.079,3.648 5.587,2.199 10.954,-0.704c21.056,-0.878 20.885,-0.204 42.141,-0.327c3.368,-0.019 33.272,-0.191 42.059,-1.732c0.934,-0.164 1.038,-1.888 1.972,-2.051l673.086,633.681c2.929,-3.736 3.122,-6.016 -1.673,-6.037c-36.373,-0.161 -450.834,-1.991 -454.666,1.029c-4.656,3.669 -3.074,4.93 -40.018,62.359c-13.916,21.632 -153.903,239.241 -172.799,271.137c-2.145,3.62 8.126,3.125 8.877,3.089c4.644,-0.158 4.458,-0.394 9.232,-0.018c69.473,1.391 77.538,-2.02 78.838,2.323c0.85,2.84 -134.186,215.685 -136.662,218.799c-4.831,6.075 5.959,3.989 10.091,4.329c19.751,-2.888 43.912,-0.342 47.708,0.058c122.892,-0.001 245.785,-0.001 368.677,-0.002c11.149,-0.945 11.039,-1.841 22.016,-0.038c3.986,-1.082 4.292,-0.282 6.983,-3.352c0.666,-1.16 1.332,-2.32 1.998,-3.48c0.44,-0.691 0.88,-1.382 1.32,-2.073c2.755,-5.212 2.617,-5.135 3.441,-6.26c2.609,-1.569 7.117,-9.403 7.628,-10.292c14.735,-25.605 16.098,-24.822 16.824,-27.281c2.74,-3.757 1.927,-4.117 5.139,-7.59c1.695,-5.709 13.541,-21.926 14.863,-23.736c0.652,-1.2 1.304,-2.399 1.956,-3.599c3.932,-5.225 1.947,-6.486 10.928,-16.553c0.33,-0.404 3.369,-4.124 3.83,-5.281c2.163,-5.441 -41.388,-1.079 -306.453,-2.833c-2.437,-0.016 -1.797,-2.224 14.798,-26.625c1.782,-2.62 18.782,-27.618 21.705,-33.136c0.351,-1.045 0.816,-2.431 6.995,-11.865c11.635,-12.966 25.551,-41.602 30.25,-41.607c85.496,-0.09 85.308,0.654 170.629,0.425c13.724,-0.037 13.545,-2.309 20.809,-14.077c3.829,-6.204 28.828,-46.703 49.927,-76.234c1.72,-5.944 2.372,-5.448 5.986,-10.642c0.936,-1.129 0.772,-0.971 1.63,-1.967c10.646,-12.35 -2.43,-9.428 -6.812,-9.409c-21.881,0.097 -245.345,1.085 -273.511,-0.428c-4.274,-1.713 -3.567,-3.204 -0.453,-6.765c1.495,-1.67 62.236,-98.426 62.483,-98.921c3.71,-6.706 3.994,-7.277 11.532,-7.236c82.545,0.031 165.091,0.062 247.636,0.093c58.243,0.007 60.031,1.599 65.44,-5.786c0.691,-1.164 1.383,-2.328 2.074,-3.493c0.392,-0.523 0.082,-0.54 3.897,-7.184c1.499,-2.018 3.358,-5.092 3.632,-5.546c0.561,-0.646 1.122,-1.291 1.682,-1.937c1.557,-1.935 2.881,-3.633 3.129,-3.951c0.61,-2.774 0.798,-2.44 2.292,-5.257c1.622,-1.969 3.336,-5.058 3.592,-5.519c0.73,-1.158 1.461,-2.316 2.191,-3.475c0.539,-0.654 1.079,-1.307 1.618,-1.961c0.482,-0.667 0.965,-1.334 1.447,-2.001c1.476,-5.399 2.087,-4.972 5.575,-9.179c0.703,-1.183 1.407,-2.365 2.11,-3.548c1.601,-1.949 1.488,-1.782 1.601,-1.949c0.456,-0.671 -0.095,-0.648 0.495,-1.515c1.381,-2.074 3.086,-5.249 3.336,-5.715c0.707,-1.163 1.414,-2.326 2.121,-3.49c0.51,-0.668 1.02,-1.337 1.531,-2.005l0.654,-1.435c1.591,-2.15 1.495,-2.02 3.042,-4.071c0.201,-0.256 1.581,-2.018 1.895,-3.603c0.632,-1.223 1.263,-2.446 1.895,-3.669c5.651,-7.299 6.035,-12.615 13.067,-20.02l-673.086,-633.681l-121.426,855.341c0.421,-0.422 7.314,-7.326 0.448,-7.442c-129.876,-2.185 -386.528,-0.184 -420.138,0.078c-14.114,0.11 -10.832,6.503 -50.509,66.938c-27.01,41.141 -27.895,41.408 -26.695,45.451c0.916,3.087 95.689,-1.223 97.271,1.762c1.352,2.55 -39.931,64.345 -43.588,69.82c-34.118,51.071 -31.737,52.561 -35.059,56.736c-0.601,0.755 -37.018,58.34 -37.083,58.432c-2.065,2.934 -25.322,35.984 -23.223,38.369c1.285,1.46 139.763,1.421 151.917,1.418c296.862,-0.084 297.698,0.729 302.388,-3.099c1.888,-2.792 1.327,-2.933 3.453,-5.643c3.575,-5.089 3.799,-4.735 6.306,-10.524c1.552,-2.188 1.429,-2.018 3.084,-3.989c6.925,-9.474 20.319,-32.002 22.003,-34.835c0.721,-1.153 1.441,-2.306 2.162,-3.46c4.495,-5.456 4.833,-6.875 5.001,-7.582c0.654,-2.254 0.602,-2.022 1.94,-3.749c0.579,-0.622 1.158,-1.243 1.737,-1.865c3.951,-6.308 4.343,-5.887 7.711,-12.558c0.614,-1.228 1.228,-2.457 1.841,-3.685c0.523,-0.669 1.046,-1.338 1.569,-2.007c0.554,-0.672 1.108,-1.344 1.662,-2.016c0.555,-0.642 1.111,-1.283 1.666,-1.925c8.533,-14.161 9.083,-16.277 6.211,-16.245c-24.212,0.27 -269.401,3.004 -302.669,0.095c-5.887,-0.515 1.409,-11.911 3.554,-14.604c6.292,-7.897 4.935,-8.596 10.636,-16.737c1.821,-2.601 15.424,-22.025 21.592,-33.297c3.681,-6.727 26.987,-41.989 27.918,-43.726c2.633,-4.909 4.281,-4.285 114.191,-4.355c72.216,-0.046 75.27,2.65 80.081,-6.8c2.124,-3.599 2.013,-3.413 4.191,-6.986c3.749,-4.826 19.852,-30.701 20.022,-31.247c0.713,-1.164 1.426,-2.328 2.139,-3.491c1.897,-2.254 23.178,-35.594 23.392,-36.909c0.695,-2.058 0.505,-1.894 2.099,-3.602c0.497,-0.676 0.995,-1.351 1.492,-2.027c8.628,-13.601 8.332,-13.684 9.285,-14.696l121.426,-855.341l-413.195,629.692c-3.715,6.319 -28.492,48.457 -48.481,77.746c-17.504,25.648 -17.395,27.213 -15.048,28.233c0.445,0.194 0.443,0.305 432.702,0.27c15.702,-0.001 26.588,1.621 30.454,-3.688c0.801,-3.497 0.582,-3.502 3.256,-6.134c4.577,-5.318 4.36,-5.368 47.602,-73.665c16.884,-26.666 17.843,-27.78 15.514,-29.005c-0.579,-0.304 -401.817,0.202 -458.163,-0.267c-5.773,-0.048 -5.103,1.556 -7.836,6.509l413.195,-629.692l673.086,633.681c-7.033,7.404 -7.416,12.721 -13.067,20.02c-0.238,2.066 -0.525,1.727 -1.895,3.669c-0.314,1.585 -1.694,3.346 -1.895,3.603c6.349,-3.871 4.805,-5.072 9.378,-10.905c4.59,-5.856 5.194,-5.474 5.911,-8.9c0.207,-0.751 -0.892,-1.485 -0.684,-2.236c0.399,-1.446 1.29,-0.573 1.811,-1.845c0.104,-0.254 0,-0 0.441,-3.405l-673.086,-633.681l483.788,1086.495c-8.981,10.067 -6.995,11.327 -10.928,16.553c-0.168,1.1 -0.336,2.2 -0.504,3.299c10.443,-12.712 14.559,-12.147 11.431,-19.852l-483.788,-1086.495l-121.426,855.341c-0.953,1.012 -0.657,1.095 -9.285,14.696c1.137,-0.713 2.274,-1.425 3.412,-2.138c5.024,-2.509 4.613,-3.072 6.189,-8.584c0.224,-0.783 1.362,-1.259 1.298,-2.071c-0.066,-0.829 -1.548,-1.074 -1.614,-1.903l121.426,-855.341l297.133,739.894c-7.538,-0.042 -7.822,0.53 -11.532,7.236c6.666,-0.646 8.956,-4.509 11.532,-7.236l-297.133,-739.894l502.262,864.62c-3.613,5.194 -4.265,4.698 -5.986,10.642c9.87,-4.172 7.5,-6.833 5.986,-10.642l-502.262,-864.62l224.662,1006.754c-6.179,9.434 -6.644,10.82 -6.995,11.865c2.09,-0.987 2.538,-0.008 3.881,-1.833c1.253,-1.702 0.462,-1.915 1.314,-3.876c0.354,-0.815 5.219,-1.773 1.8,-6.155l-224.662,-1006.754l426.449,1175.544c-0.824,1.125 -0.687,1.048 -3.441,6.26c-0.014,1.129 -0.029,2.259 -0.043,3.388c1.009,-1.856 6.74,-5.376 3.484,-9.648l-426.449,-1175.544l223.118,846.05c-3.115,3.561 -3.822,5.052 0.453,6.765c-0.151,-2.255 -0.302,-4.51 -0.453,-6.765l-223.118,-846.05l641.338,684.7c-3.488,4.208 -4.1,3.78 -5.575,9.179c4.318,-3.749 3.906,-3.893 5.575,-9.179l-641.338,-684.7l-10.312,726.12c-2.674,2.631 -2.455,2.636 -3.256,6.134c0.069,-0.027 8.555,-0.289 3.256,-6.134l10.312,-726.12l619.813,717.978c-0.274,0.454 -2.133,3.528 -3.632,5.546c-0.144,1.742 -0.288,3.484 -0.432,5.226c1.737,-3.704 3.285,-6.773 3.579,-7.358c0.162,-1.138 0.323,-2.276 0.485,-3.415l-619.813,-717.978l12.807,965.258c4.467,2.461 4.762,2.452 9.232,-0.018c-4.774,-0.375 -4.588,-0.14 -9.232,0.018l-12.807,-965.258l-179.856,947.314c-2.178,3.573 -2.067,3.387 -4.191,6.986c3.845,-2.144 3.15,-2.735 4.191,-6.986l179.856,-947.314Z" style="fill:#fe4646;fill-opacity:1;"/><path d="M1878.259,903.363l0,71.535c-0.099,-0.86 -1.789,-0.925 -1.888,-1.785c-0.091,-0.795 0.001,-0.794 -0.007,-44.071c-0.003,-16.621 -2.554,-17.127 1.894,-25.679Z" style="fill:#a62d2d;fill-opacity:0.99;"/><path d="M932.711,1878.259l-31.182,0c2.807,-0.969 2.416,-1.884 5.494,-1.897c1.906,-0.008 22.901,-0.099 23.823,0.007c0.879,0.101 0.986,1.789 1.865,1.89Z" style="fill:#a52d2d;fill-opacity:1;"/><path d="M976.732,1878.259l-31.182,0c0.857,-0.221 1.008,-1.669 1.865,-1.89c0.078,-0.02 27.318,-0.003 27.595,0.055c0.822,0.17 0.9,1.666 1.722,1.836Z" style="fill:#a52d2d;"/><path d="M908.852,1190.69c19.751,-2.888 43.912,-0.342 47.708,0.058c-24.019,0.079 -23.81,0.143 -47.708,-0.058Z" style="fill:#a44c4c;fill-opacity:0.16;"/><path d="M1325.236,1190.746c11.149,-0.945 11.039,-1.841 22.016,-0.038c-7.339,0.013 -14.677,0.025 -22.016,0.038Z" style="fill:#a44b4b;fill-opacity:0.17;"/><path d="M1390.586,1130.381c-1.274,3.156 0.317,4.284 -5.139,7.59c2.74,-3.757 1.927,-4.117 5.139,-7.59Z" style="fill:#bb6262;fill-opacity:0.16;"/><path d="M1607.631,633.681c1.516,3.944 0.981,3.965 -1.568,7.486c0.207,-0.751 -0.892,-1.485 -0.684,-2.236c0.399,-1.446 1.29,-0.573 1.811,-1.845c0.104,-0.254 0,-0 0.441,-3.405Z" style="fill:#e36b6b;fill-opacity:0.23;"/><path d="M807.246,867.899c-1.184,1.876 -2.368,3.752 -3.551,5.628c0.047,-1.163 0.093,-2.326 0.14,-3.49c1.137,-0.713 2.274,-1.425 3.412,-2.138Z" style="fill:#e75555;fill-opacity:0.22;"/><path d="M1550.725,723.525c-0.144,1.742 -0.288,3.484 -0.432,5.226c-1.155,0.652 -2.31,1.305 -3.465,1.957c0.392,-0.523 0.082,-0.54 3.897,-7.184Z" style="fill:#9f5f5f;fill-opacity:0.17;"/><path d="M732.3,1178.161c-0.63,5.74 -2.565,5.019 -3.453,5.643c1.888,-2.792 1.327,-2.933 3.453,-5.643Z" style="fill:#a65151;fill-opacity:0.15;"/><path d="M1565.052,701.315c-0.674,6.15 -2.519,4.835 -3.592,5.519c1.622,-1.969 3.336,-5.058 3.592,-5.519Z" style="fill:#915a5a;fill-opacity:0.22;"/><path d="M788.983,1089.969c0.025,1.818 -0.197,1.571 -1.787,5.477l0.12,-3.552c0.555,-0.642 1.111,-1.283 1.666,-1.925Z" style="fill:#c15757;fill-opacity:0.17;"/><path d="M1583.425,671.973c-0.232,2.221 -0.539,2.041 -2.227,5.252l-1.109,0.463c1.381,-2.074 3.086,-5.249 3.336,-5.715Z" style="fill:#975a5a;fill-opacity:0.2;"/><path d="M1556.04,716.041c-0.078,1.26 -0.238,1.154 -2.167,5.352c0.162,-1.138 0.323,-2.276 0.485,-3.415c0.561,-0.646 1.122,-1.291 1.682,-1.937Z" style="fill:#a26e6e;fill-opacity:0.19;"/><path d="M774.534,1112.159c-0.183,1.513 -0.344,1.363 -2.272,5.295l0.535,-3.43c0.579,-0.622 1.158,-1.243 1.737,-1.865Z" style="fill:#b15555;fill-opacity:0.2;"/><path d="M1568.861,695.88c-0.107,1.331 -0.214,1.111 -2.095,5.295c0.159,-1.111 0.318,-2.223 0.478,-3.334c0.539,-0.654 1.079,-1.307 1.618,-1.961Z" style="fill:#9d6464;fill-opacity:0.18;"/><path d="M1587.078,666.478c-0.168,2.149 -0.477,1.978 -2.14,5.253c0.203,-1.083 0.407,-2.165 0.61,-3.248c0.51,-0.668 1.02,-1.337 1.531,-2.005Z" style="fill:#975f5f;fill-opacity:0.18;"/><path d="M13.517,780.406c-0.203,2.468 -0.405,4.935 -0.608,7.403c-1.059,-3.72 -1.023,-3.731 0.608,-7.403Z" style="fill:#b53232;fill-opacity:0.16;"/><path d="M1561.46,706.834c-0.235,2.211 -0.549,2.03 -2.292,5.257c0.61,-2.774 0.798,-2.44 2.292,-5.257Z" style="fill:#945757;fill-opacity:0.19;"/><path d="M1580.089,677.688l1.109,-0.463c-1.191,2.42 -0.962,2.42 -3.206,3.927c1.601,-1.949 1.488,-1.782 1.601,-1.949c0.456,-0.671 -0.095,-0.648 0.495,-1.515Z" style="fill:#a65f5f;fill-opacity:0.24;"/><path d="M1559.169,712.091c-1.168,2.439 -0.877,2.473 -3.129,3.951c1.557,-1.935 2.881,-3.633 3.129,-3.951Z" style="fill:#9e6565;fill-opacity:0.25;"/><path d="M787.317,1091.893l-0.12,3.552l-1.844,0.013l0.302,-1.549c0.554,-0.672 1.108,-1.344 1.662,-2.016Z" style="fill:#b15d5d;fill-opacity:0.09;"/><path d="M741.69,1163.648c-0.528,2.772 -0.307,3.102 -3.084,3.989c1.552,-2.188 1.429,-2.018 3.084,-3.989Z" style="fill:#9c5050;fill-opacity:0.17;"/><path d="M802.342,872.064l-0.43,1.526c-0.556,0.692 -1.113,1.384 -1.669,2.076c0.695,-2.058 0.505,-1.894 2.099,-3.602Z" style="fill:#ad8282;fill-opacity:0.09;"/><path d="M1590.774,660.973c-0.393,2.842 -0.114,3.218 -3.042,4.071c1.591,-2.15 1.495,-2.02 3.042,-4.071Z" style="fill:#8b6161;fill-opacity:0.24;"/><path d="M772.796,1114.024l-0.535,3.43l-1.405,0.319c0.654,-2.254 0.602,-2.022 1.94,-3.749Z" style="fill:#a75757;fill-opacity:0.11;"/><path d="M803.834,870.037c-0.047,1.163 -0.093,2.326 -0.14,3.49l-1.782,0.064l0.43,-1.526c0.497,-0.676 0.995,-1.351 1.492,-2.027Z" style="fill:#924646;fill-opacity:0.12;"/><path d="M785.655,1093.91l-0.302,1.549c-0.571,0.665 -1.141,1.33 -1.712,1.995l0.445,-1.537c0.523,-0.669 1.046,-1.338 1.569,-2.007Z" style="fill:#8d5252;fill-opacity:0.13;"/><path d="M1357.553,1181.804c-0.014,1.129 -0.029,2.259 -0.043,3.388l-1.714,0.164l0.436,-1.479c0.44,-0.691 0.88,-1.382 1.32,-2.073Z" style="fill:#974c4c;fill-opacity:0.11;"/><path d="M1567.243,697.84c-0.159,1.111 -0.318,2.223 -0.478,3.334l-1.713,0.14c0.73,-1.158 1.461,-2.316 2.191,-3.475Z" style="fill:#846161;fill-opacity:0.16;"/><path d="M1594.564,653.701c-0.238,2.066 -0.525,1.727 -1.895,3.669c0.632,-1.223 1.263,-2.446 1.895,-3.669Z" style="fill:#855858;fill-opacity:0.12;"/><path d="M1546.828,730.708c-0.706,4.174 -1.808,3.178 -2.074,3.493c0.691,-1.164 1.383,-2.328 2.074,-3.493Z" style="fill:#845c5c;fill-opacity:0.2;"/><path d="M1407.405,1103.047c-0.168,1.1 -0.336,2.2 -0.504,3.299l-1.452,0.299c0.652,-1.2 1.304,-2.399 1.956,-3.599Z" style="fill:#884d4d;fill-opacity:0.11;"/><path d="M1585.547,668.483c-0.203,1.083 -0.407,2.165 -0.61,3.248l-1.512,0.242c0.707,-1.163 1.414,-2.326 2.121,-3.49Z" style="fill:#7f5353;fill-opacity:0.16;"/><path d="M784.086,1095.916l-0.445,1.537c-0.465,0.716 -0.931,1.432 -1.396,2.148c0.614,-1.228 1.228,-2.457 1.841,-3.685Z" style="fill:#985757;fill-opacity:0.14;"/><path d="M776.851,912.575c-1.188,4.119 -2.071,3.403 -2.139,3.491c0.713,-1.164 1.426,-2.328 2.139,-3.491Z" style="fill:#965454;fill-opacity:0.15;"/><path d="M765.855,1125.354c-1.2,4.133 -2.109,3.392 -2.162,3.46c0.721,-1.153 1.441,-2.306 2.162,-3.46Z" style="fill:#925252;fill-opacity:0.15;"/><path d="M248.52,303.548c-0.566,1.819 -0.757,1.502 -2.356,3.218c0.785,-1.073 1.571,-2.145 2.356,-3.218Z" style="fill:#a42d2d;fill-opacity:0.13;"/><path d="M1356.233,1183.876l-0.436,1.479c-0.521,0.667 -1.041,1.334 -1.562,2c0.666,-1.16 1.332,-2.32 1.998,-3.48Z" style="fill:#814646;fill-opacity:0.12;"/></g></svg>