<?xml version="1.0" encoding="UTF-8" standalone="no"?><!DOCTYPE svg PUBLIC "-//W3C//DTD SVG 1.1//EN" "http://www.w3.org/Graphics/SVG/1.1/DTD/svg11.dtd"><svg width="100%" height="100%" viewBox="0 0 219 350" version="1.1" xmlns="http://www.w3.org/2000/svg" xmlns:xlink="http://www.w3.org/1999/xlink" xml:space="preserve" xmlns:serif="http://www.serif.com/" style="fill-rule:evenodd;clip-rule:evenodd;stroke-linejoin:round;stroke-miterlimit:2;"><rect id="Mesa-de-trabajo1" serif:id="Mesa de trabajo1" x="0" y="0" width="218.238" height="349.65" style="fill:none;"/><path d="M153.059,83.711l32.785,0l0,-46.242l-19.805,-1.918c-8.902,-0.859 -17.863,-1.09 -26.809,-0.699c-16.773,0.727 -31.773,8 -42.578,19.289c-10.805,11.289 -17.418,26.59 -17.418,43.379l0,43.992l-44.098,0l0,51.809l44.098,0l0,119.91l54.371,0l0,-119.91l44.102,0l6.852,-51.809l-50.953,0l0,-38.352c0,-10.738 8.711,-19.449 19.453,-19.449" style="fill:#010101;fill-rule:nonzero;"/></svg>