<?xml version="1.0" encoding="UTF-8" standalone="no"?><!DOCTYPE svg PUBLIC "-//W3C//DTD SVG 1.1//EN" "http://www.w3.org/Graphics/SVG/1.1/DTD/svg11.dtd"><svg width="100%" height="100%" viewBox="0 0 302 302" version="1.1" xmlns="http://www.w3.org/2000/svg" xmlns:xlink="http://www.w3.org/1999/xlink" xml:space="preserve" xmlns:serif="http://www.serif.com/" style="fill-rule:evenodd;clip-rule:evenodd;stroke-linejoin:round;stroke-miterlimit:2;"><rect id="Mesa-de-trabajo1" serif:id="Mesa de trabajo1" x="0" y="0" width="301.199" height="301.199" style="fill:none;"/><clipPath id="_clip1"><rect x="0" y="0" width="301.199" height="301.199"/></clipPath><g clip-path="url(#_clip1)"><path d="M77.66,22.449c-30.488,0 -55.289,24.801 -55.289,55.281l0,146.43c0,30.488 24.801,55.289 55.289,55.289l146.418,0c30.492,0 55.293,-24.801 55.293,-55.289l0,-146.43c0,-30.48 -24.801,-55.281 -55.293,-55.281l-146.418,0Zm146.418,279.102l-146.418,0c-42.68,0 -77.391,-34.723 -77.391,-77.391l0,-146.43c0,-42.672 34.711,-77.379 77.391,-77.379l146.418,0c42.672,0 77.391,34.707 77.391,77.379l0,146.43c0,42.668 -34.719,77.391 -77.391,77.391" style="fill:#010101;fill-rule:nonzero;"/><path d="M150.871,96.762c-29.883,0 -54.191,24.309 -54.191,54.188c0,29.879 24.309,54.191 54.191,54.191c29.879,0 54.188,-24.312 54.188,-54.191c0,-29.879 -24.309,-54.188 -54.188,-54.188Zm0,130.477c-42.07,0 -76.293,-34.219 -76.293,-76.289c0,-42.07 34.223,-76.289 76.293,-76.289c42.059,0 76.289,34.219 76.289,76.289c0,42.07 -34.23,76.289 -76.289,76.289" style="fill:#010101;fill-rule:nonzero;"/><path d="M253.422,71.191c0,9.41 -7.641,17.047 -17.051,17.047c-9.422,0 -17.051,-7.637 -17.051,-17.047c0,-9.422 7.629,-17.051 17.051,-17.051c9.41,0 17.051,7.629 17.051,17.051" style="fill:#010101;fill-rule:nonzero;"/></g></svg>