<?xml version="1.0" encoding="UTF-8" standalone="no"?><!DOCTYPE svg PUBLIC "-//W3C//DTD SVG 1.1//EN" "http://www.w3.org/Graphics/SVG/1.1/DTD/svg11.dtd"><svg width="100%" height="100%" viewBox="0 0 211 209" version="1.1" xmlns="http://www.w3.org/2000/svg" xmlns:xlink="http://www.w3.org/1999/xlink" xml:space="preserve" xmlns:serif="http://www.serif.com/" style="fill-rule:evenodd;clip-rule:evenodd;stroke-linejoin:round;stroke-miterlimit:2;"><rect id="Mesa-de-trabajo1" serif:id="Mesa de trabajo1" x="0" y="0" width="210.84" height="208.039" style="fill:none;"/><clipPath id="_clip1"><rect x="0" y="0" width="210.84" height="208.039"/></clipPath><g clip-path="url(#_clip1)"><path d="M51.75,26.941c0,14.77 -11.82,26.02 -25.82,26.02c-13.93,0 -25.82,-11.18 -25.828,-26.02c0,-14.473 11.418,-26 25.828,-26.012c14.371,-0.008 25.809,11.5 25.82,26.012" style="fill:#010101;fill-rule:nonzero;"/><path d="M117.441,88.73l0,-21.941l-41.863,0l0,142.18l41.863,0c0,-19.668 -0.012,-39.34 0.008,-59.008c0.012,-5.07 -0.129,-10.152 0.129,-15.223c0.223,-4.098 0.844,-8.129 2.23,-12c2.07,-5.758 5.512,-10.43 11.051,-13.316c4.18,-2.172 8.66,-2.891 13.32,-2.852c3.199,0.031 6.301,0.48 9.27,1.711c5.711,2.359 9.191,6.777 11.32,12.41c2.012,5.34 2.621,10.938 2.641,16.57c0.051,23.898 0.02,47.809 0.02,71.707l43.512,0c0,-28.219 0,-56.43 -0.012,-84.648c0,-3.922 -0.148,-7.832 -0.602,-11.742c-0.668,-5.75 -1.918,-11.348 -4.09,-16.727c-4.098,-10.172 -10.789,-18.07 -20.566,-23.203c-7.621,-3.988 -15.832,-5.57 -24.352,-5.828c-3.641,-0.109 -7.262,0.168 -10.859,0.801c-10.562,1.848 -19.5,6.73 -26.961,14.379c-2.25,2.301 -4.238,4.828 -6.059,7.738l0,-1.008" style="fill:#010101;fill-rule:nonzero;"/><path d="M47.961,66.789l-43.699,0l0,142.18l43.699,0l0,-142.18" style="fill:#010101;fill-rule:nonzero;"/></g></svg>