<?xml version="1.0" encoding="UTF-8" standalone="no"?><!DOCTYPE svg PUBLIC "-//W3C//DTD SVG 1.1//EN" "http://www.w3.org/Graphics/SVG/1.1/DTD/svg11.dtd"><svg width="100%" height="100%" viewBox="0 0 4500 4017" version="1.1" xmlns="http://www.w3.org/2000/svg" xmlns:xlink="http://www.w3.org/1999/xlink" xml:space="preserve" xmlns:serif="http://www.serif.com/" style="fill-rule:evenodd;clip-rule:evenodd;stroke-linejoin:round;stroke-miterlimit:2;"><circle cx="2222.917" cy="2000" r="1722.917" style="fill:#255af6;"/><path d="M2354.361,1318.103l-966.142,0l-144.921,238.852l960.539,0l150.525,-238.852Z" style="fill:#fff;"/><path d="M1093.567,1794.561l946.014,0l-152.838,240.596l-446.572,0l-141.701,223.286l641.948,0l-169.612,253.344l-906.027,0l285.549,-474.483l-210.404,0l153.643,-242.743Z" style="fill:#fff;"/><path d="M3443.306,1584.291l-717.092,0l-136.205,226.378l696.928,0l-160.491,245.134l-457.29,0l-135.208,223.149l636.469,0l-158.293,248.432l-921.176,0l302.295,-472.68l-229.744,0l457.29,-720.012l980.81,0l-158.293,249.6Z" style="fill:#fff;"/></svg>