<?xml version="1.0" encoding="UTF-8" standalone="no"?><!DOCTYPE svg PUBLIC "-//W3C//DTD SVG 1.1//EN" "http://www.w3.org/Graphics/SVG/1.1/DTD/svg11.dtd"><svg width="100%" height="100%" viewBox="0 0 236 193" version="1.1" xmlns="http://www.w3.org/2000/svg" xmlns:xlink="http://www.w3.org/1999/xlink" xml:space="preserve" xmlns:serif="http://www.serif.com/" style="fill-rule:evenodd;clip-rule:evenodd;stroke-linejoin:round;stroke-miterlimit:2;"><rect id="Mesa-de-trabajo1" serif:id="Mesa de trabajo1" x="0" y="0" width="235.993" height="192.767" style="fill:none;"/><clipPath id="_clip1"><rect x="0" y="0" width="235.993" height="192.767"/></clipPath><g clip-path="url(#_clip1)"><path d="M236.379,24.512c-4.379,6.359 -9.438,12.109 -15.168,17.277c-2.43,2.191 -4.949,4.262 -7.602,6.172c-0.539,0.391 -0.711,0.809 -0.66,1.449c0.223,3.199 0.152,6.398 0.051,9.602c-0.109,3.387 -0.328,6.777 -0.711,10.148c-0.82,7.32 -2.199,14.539 -4.141,21.641c-4.957,18.109 -13.039,34.688 -24.41,49.641c-13.219,17.379 -29.617,30.867 -49.43,40.148c-9.18,4.301 -18.75,7.449 -28.66,9.559c-4,0.852 -8.027,1.543 -12.078,2.043c-3.141,0.387 -6.289,0.668 -9.449,0.859c-2.66,0.148 -5.312,0.301 -7.961,0.277c-3.262,-0.02 -6.531,-0.078 -9.789,-0.27c-3.16,-0.188 -6.312,-0.457 -9.449,-0.859c-4.473,-0.57 -8.902,-1.359 -13.293,-2.371c-13.777,-3.156 -26.758,-8.309 -38.957,-15.449c-1.242,-0.73 -2.461,-1.488 -3.691,-2.238c-0.102,-0.07 -0.242,-0.109 -0.211,-0.32c26.332,2.52 50.02,-4.242 71.109,-20.18c-0.148,-0.43 -0.41,-0.34 -0.609,-0.352c-2.969,-0.188 -5.93,-0.461 -8.828,-1.141c-13.902,-3.277 -24.5,-11.047 -31.77,-23.34c-1.523,-2.57 -2.723,-5.289 -3.703,-8.109c-0.09,-0.238 -0.168,-0.48 -0.238,-0.719c-0.02,-0.051 0.02,-0.121 0.051,-0.262c2.391,0.383 4.789,0.652 7.219,0.77c2.398,0.121 4.789,-0.047 7.18,-0.309c2.398,-0.27 4.781,-0.648 7.09,-1.469c-15.789,-3.82 -27.398,-12.852 -34.379,-27.57c-2.961,-6.23 -5.141,-17.25 -4.199,-20.531c5.5,2.949 11.32,4.84 17.5,5.582c1.348,0.168 2.707,0.277 4.32,0.277c-14.961,-10.93 -22.301,-25.418 -21.48,-43.777c0.34,-7.48 2.57,-14.492 6.328,-20.992c0.449,0.16 0.602,0.5 0.82,0.762c17.73,21.168 39.781,35.848 66.148,44.039c5.832,1.809 11.773,3.191 17.801,4.16c2.93,0.48 5.871,0.871 8.832,1.168c1.91,0.203 3.82,0.293 5.73,0.5c0.25,0.023 0.508,0.023 0.77,0.023c0.277,-0.012 0.398,-0.16 0.359,-0.441c-0.109,-0.559 -0.211,-1.129 -0.32,-1.691c-0.871,-4.688 -1.051,-9.398 -0.559,-14.148c1.758,-16.781 12.258,-31.66 27.789,-38.93c4.16,-1.949 8.52,-3.242 13.059,-3.969c3.492,-0.562 7.012,-0.75 10.52,-0.5c12.293,0.867 22.871,5.598 31.582,14.359c0.711,0.707 1.32,0.84 2.258,0.641c10.051,-2.133 19.523,-5.781 28.453,-10.863c0.188,-0.109 0.379,-0.23 0.578,-0.34c0.051,-0.027 0.121,-0.027 0.18,-0.047c0.012,2.207 -4.469,10.637 -8,15.047c-3.598,4.512 -7.879,8.25 -12.75,11.402c4.699,-0.41 9.27,-1.332 13.789,-2.551c4.543,-1.219 8.961,-2.789 13.352,-4.672c0.059,0.41 -0.211,0.633 -0.371,0.863" style="fill:#010101;fill-rule:nonzero;"/></g></svg>